<?xml version="1.0" encoding="utf-8"?>
<!-- Generator: Adobe Illustrator 24.2.0, SVG Export Plug-In . SVG Version: 6.00 Build 0)  -->
<svg version="1.1" id="Logo" xmlns="http://www.w3.org/2000/svg" x="0px"
     y="0px"
     viewBox="0 0 141.73 141.73" style="enable-background:new 0 0 141.73 141.73;" xml:space="preserve">
<style type="text/css">
	.st0{fill:#00B0FF;}
	.st1{fill:#0081CB;}
	.st2{fill:#1C88CC;}
</style>
    <polygon class="st0" points="13.63,17.76 13.63,74.78 29.76,84.03 29.76,46.46 62.89,65.34 62.89,46.27 "/>
    <polygon class="st1"
             points="62.89,46.27 112.6,17.76 112.6,74.4 79.03,93.65 62.89,84.03 96.22,65.15 96.22,46.08 62.89,65.34 "/>
    <polyline class="st0" points="62.89,84.03 95.84,103.68 95.84,121.98 62.89,102.91 62.89,84.03 "/>
    <polygon class="st0" points="112.6,74.4 124.9,81.23 124.9,66.36 112.6,59.18 "/>
    <polygon class="st1" points="129.94,84.03 95.84,103.68 95.84,121.98 129.94,100.98 "/>
    <polygon class="st2" points="129.94,84.03 124.9,66.36 124.9,81.23 126.5,86.01 "/>
</svg>
