<svg xmlns="http://www.w3.org/2000/svg" viewBox="0 0 560 288"><defs><style>.cls-1{fill:#00b0ff;}.cls-2{fill:#0081cb;}.cls-3{fill:#1c88cc;}.cls-4{font-size:56.2px;fill:#1976d2;font-family:Roboto-Light, Roboto;font-weight:300;letter-spacing:0.07em;}</style></defs><g id="Logo"><polygon class="cls-1" points="32.42 100.84 32.42 150.92 46.58 159.04 46.58 126.05 75.68 142.63 75.68 125.88 32.42 100.84"/><polygon class="cls-2" points="75.68 125.88 119.33 100.84 119.33 150.58 89.85 167.49 75.68 159.04 104.95 142.46 104.95 125.71 75.68 142.63 75.68 125.88"/><polyline class="cls-1" points="75.68 159.04 104.61 176.29 104.61 192.37 75.68 175.62 75.68 159.04"/><polygon class="cls-1" points="119.33 150.58 130.13 156.58 130.13 143.53 119.33 137.22 119.33 150.58"/><polygon class="cls-2" points="134.55 159.04 104.61 176.29 104.61 192.37 134.55 173.93 134.55 159.04"/><polygon class="cls-3" points="134.55 159.04 130.13 143.53 130.13 156.58 131.53 160.78 134.55 159.04"/></g><g id="Text"><text class="cls-4" transform="translate(150.83 159.13)">Material Docs</text></g></svg>