<svg xmlns="http://www.w3.org/2000/svg" viewBox="0 0 511.86 91.52"><defs><style>.cls-1{fill:#00b0ff;}.cls-2,.cls-5{fill:#0081cb;}.cls-3{fill:#1c88cc;}.cls-4{font-size:56.2px;fill:#1976d2;letter-spacing:0.07em;}.cls-4,.cls-5{font-family:Roboto-Light, Roboto;font-weight:300;}.cls-5{font-size:14px;letter-spacing:0.19em;}.cls-6{letter-spacing:0.18em;}.cls-7{letter-spacing:0.2em;}.cls-8{letter-spacing:0.19em;}</style></defs><g id="Logo"><polygon class="cls-1" points="0 0 0 50.08 14.16 58.2 14.16 25.21 43.26 41.79 43.26 25.04 0 0"/><polygon class="cls-2" points="43.26 25.04 86.91 0 86.91 49.74 57.43 66.65 43.26 58.2 72.53 41.62 72.53 24.87 43.26 41.79 43.26 25.04"/><polyline class="cls-1" points="43.26 58.2 72.19 75.45 72.19 91.52 43.26 74.78 43.26 58.2"/><polygon class="cls-1" points="86.91 49.74 97.71 55.74 97.71 42.69 86.91 36.37 86.91 49.74"/><polygon class="cls-2" points="102.14 58.2 72.19 75.45 72.19 91.52 102.14 73.08 102.14 58.2"/><polygon class="cls-3" points="102.14 58.2 97.71 42.69 97.71 55.74 99.12 59.94 102.14 58.2"/></g><g id="Text"><text class="cls-4" transform="translate(118.41 58.29)">Material Docs</text><text class="cls-5" transform="translate(144.34 78.94)">F<tspan class="cls-6" x="10.5" y="0">r</tspan><tspan class="cls-7" x="17.73" y="0">amework for c</tspan><tspan class="cls-8" x="142.44" y="0">r</tspan><tspan class="cls-7" x="149.82" y="0">eating documentation</tspan></text></g></svg>